# xmcd CD database file
#
# Track frame offsets:
#	150
#	19155
#	39442
#
# Disc length: 778 seconds
#
# Revision: 0
# Processed by: cddbd v1.5.1PL0 Copyright (c) Steve Scherf et al.
# Submitted via: CDex 1.51
#
DISCID=1a030803
DTITLE=細江真由子 - 秋止符
DYEAR=1992
DGENRE=JPop
TTITLE0=秋止符
TTITLE1=あなたへ急いで
TTITLE2=秋止符(カラオケ)
EXTD=YEAR: 1992
EXTT0=
EXTT1=
EXTT2=
PLAYORDER=
